inDegrees=yes
name=ik_lifting_orientations
DataType=double
version=3
OpenSimVersion=4.5-2024-01-10-34fd6af
endheader
time	pelvis_tilt	pelvis_list	pelvis_rotation	pelvis_tx	pelvis_ty	pelvis_tz	hip_flexion_r	hip_adduction_r	hip_rotation_r	knee_angle_r	knee_angle_r_beta	ankle_angle_r	subtalar_angle_r	mtp_angle_r	hip_flexion_l	hip_adduction_l	hip_rotation_l	knee_angle_l	knee_angle_l_beta	ankle_angle_l	subtalar_angle_l	mtp_angle_l	lumbar_extension	lumbar_bending	lumbar_rotation	arm_flex_r	arm_add_r	arm_rot_r	elbow_flex_r	pro_sup_r	wrist_flex_r	wrist_dev_r	arm_flex_l	arm_add_l	arm_rot_l	elbow_flex_l	pro_sup_l	wrist_flex_l	wrist_dev_l
1.43	0.5925254897188241	31.63577951911371	-83.06648375799435	0	0.9399999998679526	0	45.20647973045162	-10.02761155759889	0	60.02249151746739	1.047590102230173	-5.004576571232835	0	0	45.20647973045162	-10.02761155759889	0	60.02249151746739	1.047590102230173	-5.004576571232835	0	0	89.96786618486274	-2.230896427854528	-33.0500427939042	-52.45726726942124	-26.16182573548415	24.73456295981481	0.01691522653760346	0.9005715895507266	0	0	0	-13.06314876638888	0	89.11743691906558	0.9005715895507266	0	0
1.44	0.5178489506531608	31.84944691167285	-83.3008486512114	0	0.9399999998679526	0	45.20147019668051	-10.02523135889481	0	60.02206623027804	1.047582679568453	-5.004070124727943	0	0	45.20147019668051	-10.02523135889481	0	60.02206623027804	1.047582679568453	-5.004070124727943	0	0	89.96585405653468	-2.075520066102496	-33.04284139486927	-51.28247451708112	-25.70983441326575	25.13048177762749	0.01654295938015811	0.8856466191708537	0	0	0	-13.08638218753163	0	89.13206047811161	0.8856466191708537	0	0
1.45	0.6289943399769861	32.1210441200822	-83.54444286323496	0	0.9399999998679526	0	45.19613025179173	-10.02281044896986	0	60.02161182255046	1.04757474865746	-5.003567481256162	0	0	45.19613025179173	-10.02281044896986	0	60.02161182255046	1.04757474865746	-5.003567481256162	0	0	89.96287595508919	-2.058915087640264	-32.84374726886158	-50.29215008628576	-25.22724534513544	25.36772516917171	0.01580224964685499	0.8697060116958782	0	0	0	-13.11119387956226	0	89.14767916457684	0.8697060116958782	0	0
1.46	0.4683373407161393	32.51855025263869	-83.64045605219262	0	0.9399999998679526	0	45.19056179741978	-10.0204478589311	0	60.02113565315666	1.047566437933741	-5.00309151128311	0	0	45.19056179741978	-10.0204478589311	0	60.02113565315666	1.047566437933741	-5.00309151128311	0	0	89.9587769388072	-2.025735520792909	-32.78555940931825	-49.19349179963179	-24.64698720523636	25.58359382413284	0.01514163499307073	0.8529806763939998	0	0	0	-13.13730687409258	0	89.16406673349226	0.8529806763939998	0	0
1.47	0.4319142826406782	32.86178326177735	-83.94713051103241	0	0.9399999998679526	0	45.18538923598359	-10.01855326989162	0	60.02068703055872	1.047558607992308	-5.002727214074727	0	0	45.18538923598359	-10.01855326989162	0	60.02068703055872	1.047558607992308	-5.002727214074727	0	0	89.95204228145882	-1.78026023439624	-32.6850851366879	-47.70520895657722	-24.44512803925195	26.2150806033365	0.01501216895707901	0.8370171128609675	0	0	0	-13.16271399381313	0	89.17970792050986	0.8370171128609675	0	0
1.48	0.3128870776790713	33.11225010540252	-83.93380283938372	0	0.9399999998679526	0	45.18072479373011	-10.01695345102222	0	60.02028086892038	1.047551519134424	-5.00242791724081	0	0	45.18072479373011	-10.01695345102222	0	60.02028086892038	1.047551519134424	-5.00242791724081	0	0	89.94093144947762	-1.803258044875941	-32.63688062268366	-46.34494380423698	-24.22956462279552	26.75097308693767	0.01491689467953693	0.8225162005380732	0	0	0	-13.18588616965238	0	89.19391599563613	0.8225162005380732	0	0
1.49	0.2044304949897943	33.46714114339945	-83.94194152280669	0	0.9399999998679526	0	45.17607427440045	-10.01545147801495	0	60.01987336071457	1.047544406774503	-5.002154202218578	0	0	45.17607427440045	-10.01545147801495	0	60.01987336071457	1.047544406774503	-5.002154202218578	0	0	89.91827263482423	-1.889190742990471	-32.61299824250549	-44.86955930163131	-23.99810000388672	27.44666172665366	0.01490340264451189	0.8079753321104746	0	0	0	-13.20918765422346	0	89.20816322135026	0.8079753321104746	0	0
1.5	0.1206255928204316	33.80696196331523	-84.00792446897455	0	0.9399999998679526	0	45.17055863007494	-10.01380547822532	0	60.01938474727342	1.047535878861186	-5.00186353421558	0	0	45.17055863007494	-10.01380547822532	0	60.01938474727342	1.047535878861186	-5.00186353421558	0	0	89.84832468880123	-1.935477270823818	-32.54573478942864	-43.39190287358166	-23.81526201986317	28.06823143194422	0.01505507252334057	0.7905582064154689	0	0	0	-13.23726510556762	0	89.22522862262112	0.7905582064154689	0	0
1.51	0.01494485985951225	34.32789515975961	-83.66299016295116	0	0.9399999998679526	0	45.16594898075199	-10.01255325851653	0	60.01897196629797	1.047528674474075	-5.001649792936264	0	0	45.16594898075199	-10.01255325851653	0	60.01897196629797	1.047528674474075	-5.001649792936264	0	0	89.64110851663558	-2.342567776579482	-32.48688923929153	-41.52542322948224	-23.59127236529462	28.81750605134312	0.0152509555096606	0.7757847634666453	0	0	0	-13.26132193694289	0	89.23970373080792	0.7757847634666453	0	0
1.52	-0.2194864427141745	35.01176892010644	-83.65897800702038	0	0.9399999998679526	0	45.16372239537476	-10.01204635647915	0	60.01876561482927	1.04752507296153	-5.001566931476632	0	0	45.16372239537476	-10.01204635647915	0	60.01876561482927	1.04752507296153	-5.001566931476632	0	0	89.2129802813392	-2.397748020195539	-32.61423321291939	-39.37504882992469	-23.30628550500607	29.75242510417489	0.01578347535395989	0.7683484110060882	0	0	0	-13.27381531861573	0	89.24698991600518	0.7683484110060882	0	0
